<svg xmlns="http://www.w3.org/2000/svg" version="1.1" xmlns:xlink="http://www.w3.org/1999/xlink" xmlns:svgjs="http://svgjs.com/svgjs" width="20" height="20" x="0" y="0" viewBox="0 0 32 32">
<g transform="scale(0.5)">
<path d="M4.203 25.773h18.086a2.85 2.85 0 0 1 .61-.9l.241-.251-.242-.242a2.95 2.95 0 0 1-.803-1.51 2.917 2.917 0 0 1 .803-2.593c.678-.677 1.674-.939 2.594-.774a2.942 2.942 0 0 1 1.51.774l.25.242.243-.242c.26-.261.56-.455.9-.6V10.33A3.198 3.198 0 0 0 25.2 7.127h-4.17a.317.317 0 0 1-.271-.155l-.784-1.587a3.2 3.2 0 0 0-2.864-1.761h-4.829a3.23 3.23 0 0 0-2.864 1.77l-.784 1.558a.295.295 0 0 1-.261.175H4.203A3.2 3.2 0 0 0 1 10.33v12.24a3.2 3.2 0 0 0 3.203 3.203zm10.5-14.611a4.867 4.867 0 0 1 4.857 4.857c0 2.671-2.187 4.858-4.858 4.858a4.867 4.867 0 0 1-4.858-4.858 4.86 4.86 0 0 1 4.858-4.857z" fill="#aaaa" data-original="#000000" class=""></path><path d="M30.572 21.303c-.571-.571-1.48-.571-2.052 0l-1.054 1.055a1.03 1.03 0 0 1-.34.087l-1.15-1.142a1.405 1.405 0 0 0-.484-.32 1.443 1.443 0 0 0-1.568.32 1.458 1.458 0 0 0-.31 1.567c.058.175.165.34.31.484l1.277 1.268-1.277 1.277a1.46 1.46 0 0 0 0 2.052c.29.28.658.425 1.026.425.377 0 .745-.145 1.025-.425l1.278-1.268 1.267 1.268c.281.28.658.425 1.026.425a1.46 1.46 0 0 0 1.026-.425c.57-.571.57-1.49 0-2.052l-1.268-1.277 1.268-1.268a1.443 1.443 0 0 0 0-2.051z" fill="#ccc" class=""></path></g></svg>